<?xml version="1.0" encoding="UTF-8" standalone="no"?>
<!-- Created with Inkscape (http://www.inkscape.org/) -->
<svg xmlns:dc="http://purl.org/dc/elements/1.1/" xmlns:cc="http://creativecommons.org/ns#" xmlns:rdf="http://www.w3.org/1999/02/22-rdf-syntax-ns#" xmlns:svg="http://www.w3.org/2000/svg" xmlns="http://www.w3.org/2000/svg" xmlns:sodipodi="http://sodipodi.sourceforge.net/DTD/sodipodi-0.dtd" xmlns:inkscape="http://www.inkscape.org/namespaces/inkscape" version="1.0" width="128" height="128" viewBox="0 0 600 600" id="Layer_1" xml:space="preserve" sodipodi:version="0.32" inkscape:version="0.46" sodipodi:docname="Film_Reel.svg" inkscape:output_extension="org.inkscape.output.svg.inkscape"><metadata id="metadata52"><rdf:RDF><cc:Work rdf:about=""><dc:format>image/svg+xml</dc:format><dc:type rdf:resource="http://purl.org/dc/dcmitype/StillImage"/></cc:Work></rdf:RDF></metadata><sodipodi:namedview inkscape:window-height="964" inkscape:window-width="1280" inkscape:pageshadow="2" inkscape:pageopacity="0.0" guidetolerance="10.0" gridtolerance="10.0" objecttolerance="10.0" borderopacity="1.0" bordercolor="#666666" pagecolor="#ffffff" id="base" showgrid="false" inkscape:zoom="3.609375" inkscape:cx="64" inkscape:cy="73.589818" inkscape:window-x="-4" inkscape:window-y="-4" inkscape:current-layer="Layer_1"/><defs id="defs89"><inkscape:perspective sodipodi:type="inkscape:persp3d" inkscape:vp_x="0 : 64 : 1" inkscape:vp_y="0 : 1000 : 0" inkscape:vp_z="128 : 64 : 1" inkscape:persp3d-origin="64 : 42.666667 : 1" id="perspective54"/><filter inkscape:collect="always" id="filter3209"><feGaussianBlur inkscape:collect="always" stdDeviation="7.2997961" id="feGaussianBlur3211"/></filter></defs>
<linearGradient x1="301.9541" y1="140.2417" x2="301.9541" y2="487.88361" id="SVGID_1_" gradientUnits="userSpaceOnUse" gradientTransform="matrix(1.03325, 0, 0, 1.03325, -11.1209, 1.32669)">
	<stop id="stop4" style="stop-color: rgb(158, 158, 158); stop-opacity: 1;" offset="0"/>
	<stop id="stop6" style="stop-color: rgb(97, 97, 97); stop-opacity: 1;" offset="1"/>
</linearGradient>
<path style="fill: rgb(0, 0, 0); filter: url(&quot;#filter3209&quot;);" id="path2427" d="M 595.60864,339.53088 C 595.60864,453.34647 463.79384,545.64049 301.16959,545.64049 C 138.53397,545.64049 6.7067719,453.34751 6.7067719,339.53088 C 6.7067719,225.70394 138.53397,133.42746 301.16959,133.42746 C 463.79281,133.42746 595.60864,225.70497 595.60864,339.53088 z M 468.27607,239.90388 C 426.34367,239.90388 392.35079,261.44093 392.35079,287.99341 C 392.35079,314.55518 426.34367,336.09326 468.27607,336.09326 C 510.21054,336.09326 544.20134,314.55518 544.20134,287.99341 C 544.20237,261.44093 510.21054,239.90388 468.27607,239.90388 z M 418.21201,382.41902 C 376.2569,382.41902 342.28673,404.56985 342.28673,431.88794 C 342.28673,459.21429 376.2569,481.37646 418.21201,481.37646 C 460.12475,481.37646 494.13729,459.21429 494.13729,431.88794 C 494.13832,404.57088 460.12578,382.41902 418.21201,382.41902 z M 206.75947,382.41902 C 164.80538,382.41902 130.83419,404.56985 130.83419,431.88794 C 130.83419,459.21429 164.80538,481.37646 206.75947,481.37646 C 248.68255,481.37646 282.67441,459.21429 282.67441,431.88794 C 282.67338,404.57088 248.68255,382.41902 206.75947,382.41902 z M 301.34627,149.11324 C 259.40252,149.11324 225.421,167.57637 225.421,190.33577 C 225.421,213.11069 259.40355,231.56763 301.34627,231.56763 C 343.27039,231.56763 377.28395,213.11069 377.28395,190.33577 C 377.28395,167.57637 343.27039,149.11324 301.34627,149.11324 z M 141.37438,239.90388 C 99.430631,239.90388 65.449102,261.44093 65.449102,287.99341 C 65.449102,314.55518 99.431661,336.09326 141.37438,336.09326 C 183.29746,336.09326 217.29965,314.55518 217.29965,287.99341 C 217.29965,261.44093 183.29746,239.90388 141.37438,239.90388 z"/><path d="M 595.32455,336.64939 C 595.32455,450.46498 463.50975,542.759 300.8855,542.759 C 138.24988,542.759 6.422681,450.46602 6.422681,336.64939 C 6.422681,222.82245 138.24988,130.54597 300.8855,130.54597 C 463.50872,130.54597 595.32455,222.82348 595.32455,336.64939 z M 467.99198,237.02239 C 426.05958,237.02239 392.0667,258.55944 392.0667,285.11192 C 392.0667,311.67369 426.05958,333.21177 467.99198,333.21177 C 509.92645,333.21177 543.91725,311.67369 543.91725,285.11192 C 543.91828,258.55944 509.92645,237.02239 467.99198,237.02239 z M 417.92792,379.53753 C 375.97281,379.53753 342.00264,401.68836 342.00264,429.00645 C 342.00264,456.3328 375.97281,478.49497 417.92792,478.49497 C 459.84066,478.49497 493.8532,456.3328 493.8532,429.00645 C 493.85423,401.68939 459.84169,379.53753 417.92792,379.53753 z M 206.47538,379.53753 C 164.52129,379.53753 130.5501,401.68836 130.5501,429.00645 C 130.5501,456.3328 164.52129,478.49497 206.47538,478.49497 C 248.39846,478.49497 282.39032,456.3328 282.39032,429.00645 C 282.38929,401.68939 248.39846,379.53753 206.47538,379.53753 z M 301.06218,146.23175 C 259.11843,146.23175 225.13691,164.69488 225.13691,187.45428 C 225.13691,210.2292 259.11946,228.68614 301.06218,228.68614 C 342.9863,228.68614 376.99986,210.2292 376.99986,187.45428 C 376.99986,164.69488 342.9863,146.23175 301.06218,146.23175 z M 141.09029,237.02239 C 99.14654,237.02239 65.165011,258.55944 65.165011,285.11192 C 65.165011,311.67369 99.14757,333.21177 141.09029,333.21177 C 183.01337,333.21177 217.01556,311.67369 217.01556,285.11192 C 217.01556,258.55944 183.01337,237.02239 141.09029,237.02239 z" id="path8" style="fill: url(&quot;#SVGID_1_&quot;) rgb(0, 0, 0);"/>
<linearGradient x1="302.25" y1="389.8613" x2="302.25" y2="173.5159" id="SVGID_2_" gradientUnits="userSpaceOnUse" gradientTransform="matrix(1.03325, 0, 0, 1.03325, -11.1209, 1.32669)">
	<stop id="stop11" style="stop-color: rgb(23, 23, 23); stop-opacity: 1;" offset="0"/>
	<stop id="stop13" style="stop-color: rgb(130, 130, 130); stop-opacity: 1;" offset="1"/>
</linearGradient>
<path d="M 487.16911,289.70159 C 487.16911,355.37497 403.90878,408.61527 301.16757,408.61527 C 198.46046,408.61527 115.18877,355.37497 115.18877,289.70159 C 115.18877,224.01791 198.46046,170.77869 301.16757,170.77869 C 403.90878,170.77869 487.16911,224.01791 487.16911,289.70159 z" id="path15" style="fill: url(&quot;#SVGID_2_&quot;) rgb(0, 0, 0);"/>
<path d="M 488.96077,262.87742 C 488.96077,328.5508 405.70044,381.79002 302.9706,381.79002 C 200.25108,381.79002 116.98043,328.5508 116.98043,262.87742 C 116.98043,197.19369 200.25108,143.95344 302.9706,143.95344 C 405.70044,143.95344 488.96077,197.19266 488.96077,262.87742 z" id="path17" style="opacity: 0.42; fill: rgb(178, 178, 178);"/>
<linearGradient x1="303.98441" y1="356.1113" x2="303.98441" y2="139.7655" id="SVGID_3_" gradientUnits="userSpaceOnUse" gradientTransform="matrix(1.03325, 0, 0, 1.03325, -11.1209, 1.32669)">
	<stop id="stop20" style="stop-color: rgb(23, 23, 23); stop-opacity: 1;" offset="0"/>
	<stop id="stop22" style="stop-color: rgb(130, 130, 130); stop-opacity: 1;" offset="1"/>
</linearGradient>
<path d="M 488.96077,254.82941 C 488.96077,320.50175 405.70044,373.74205 302.9706,373.74205 C 200.25108,373.74205 116.98043,320.50175 116.98043,254.82941 C 116.98043,189.14675 200.25108,135.90547 302.9706,135.90547 C 405.70044,135.90547 488.96077,189.14675 488.96077,254.82941 z" id="path24" style="fill: url(&quot;#SVGID_3_&quot;) rgb(0, 0, 0);"/>
<linearGradient x1="301.95309" y1="482.92679" x2="301.95309" y2="159.2057" id="SVGID_4_" gradientUnits="userSpaceOnUse" gradientTransform="matrix(1.03325, 0, 0, 1.03325, -11.1209, 1.32669)">
	<stop id="stop27" style="stop-color: rgb(23, 23, 23); stop-opacity: 1;" offset="0"/>
	<stop id="stop29" style="stop-color: rgb(130, 130, 130); stop-opacity: 1;" offset="1"/>
</linearGradient>
<path d="M 554.52975,310.05561 C 548.66091,390.78031 440.9663,455.12802 308.91695,455.12802 C 173.11897,455.12802 63.028247,387.07198 63.028247,303.11937 C 63.028247,299.11658 63.357858,295.15513 63.850716,291.23188 C 41.725734,312.19442 29.045691,336.36627 29.045691,362.12314 C 29.045691,442.13492 150.74704,506.98583 300.86896,506.98583 C 450.99192,506.98583 572.69742,442.13389 572.69742,362.12314 C 572.69845,343.76436 566.22408,326.22392 554.52975,310.05561 z" id="path31" style="fill: url(&quot;#SVGID_4_&quot;) rgb(0, 0, 0);"/>
<path d="M 585.68742,276.73536 C 585.68742,381.65464 457.78762,466.73867 300.00517,466.73867 C 142.22273,466.73867 14.326013,381.65464 14.326013,276.73536 C 14.326013,171.79438 142.22376,86.725859 300.00517,86.725859 C 457.78659,86.725859 585.68742,171.79334 585.68742,276.73536 z M 300.00413,94.777953 C 154.48327,94.777953 36.51712,173.23986 36.51712,270.02853 C 36.51712,366.7955 154.48327,445.26772 300.00413,445.26772 C 445.52911,445.26772 563.49323,366.7955 563.49323,270.02853 C 563.49323,173.23986 445.52911,94.777953 300.00413,94.777953 z" id="path33" style="fill: rgb(204, 204, 204);"/>
<linearGradient x1="301.10941" y1="459.10449" x2="301.10895" y2="-50.503357" id="SVGID_5_" gradientUnits="userSpaceOnUse" gradientTransform="matrix(1.03325, 0, 0, 1.03325, -11.1209, 1.32669)">
	<stop id="stop36" style="stop-color: rgb(254, 254, 254); stop-opacity: 1;" offset="0"/>
	<stop id="stop38" style="stop-color: rgb(48, 48, 48); stop-opacity: 1;" offset="1"/>
</linearGradient>
<path d="M 600,283.44631 C 600,396.05197 465.68888,487.31792 300.00413,487.31792 C 134.31113,487.31792 0,396.05197 0,283.44631 C 0,170.85205 134.3101,79.57475 300.00413,79.57475 C 465.68888,79.573719 600,170.85102 600,283.44631 z M 300.00413,86.725859 C 142.22169,86.725859 14.324977,171.79334 14.324977,276.73536 C 14.324977,381.65464 142.22273,466.73867 300.00413,466.73867 C 457.78659,466.73867 585.68639,381.65464 585.68639,276.73536 C 585.68742,171.79334 457.78659,86.725859 300.00413,86.725859 z" id="path40" style="fill: url(&quot;#SVGID_5_&quot;) rgb(0, 0, 0);"/>
<linearGradient x1="301.10941" y1="90.444298" x2="301.10941" y2="435.72559" id="SVGID_6_" gradientUnits="userSpaceOnUse" gradientTransform="matrix(1.03325, 0, 0, 1.03325, -11.1209, 1.32669)">
	<stop id="stop43" style="stop-color: rgb(255, 255, 255); stop-opacity: 1;" offset="0"/>
	<stop id="stop45" style="stop-color: rgb(191, 191, 191); stop-opacity: 1;" offset="0.5"/>
	<stop id="stop47" style="stop-color: rgb(231, 231, 231); stop-opacity: 1;" offset="1"/>
</linearGradient>
<path d="M 583.89473,272.71602 C 583.89473,376.41298 456.79153,460.49267 300.00413,460.49267 C 143.20845,460.49267 16.105266,376.41298 16.105266,272.71602 C 16.105266,169.01802 143.20741,84.949719 300.00413,84.949719 C 456.79153,84.949719 583.89473,169.01802 583.89473,272.71602 z M 461.13122,181.95327 C 420.69394,181.95327 387.92957,201.57364 387.92957,225.76306 C 387.92957,249.968 420.69394,269.58941 461.13122,269.58941 C 501.55608,269.58941 534.33281,249.968 534.33281,225.76306 C 534.33178,201.57364 501.55608,181.95327 461.13122,181.95327 z M 412.8464,325.637 C 372.41016,325.637 339.64373,345.81847 339.64373,370.70427 C 339.64373,395.60042 372.41016,415.78292 412.8464,415.78292 C 453.2723,415.78292 486.04805,395.60042 486.04805,370.70427 C 486.04805,345.81847 453.2723,325.637 412.8464,325.637 z M 208.97998,325.637 C 168.54374,325.637 135.77938,345.81847 135.77938,370.70427 C 135.77938,395.60042 168.54374,415.78292 208.97998,415.78292 C 249.40588,415.78292 282.18057,395.60042 282.18057,370.70427 C 282.18057,345.81847 249.40588,325.637 208.97998,325.637 z M 300.18392,99.242656 C 259.74768,99.242656 226.98126,116.05981 226.98126,136.79609 C 226.98126,157.54377 259.74768,174.362 300.18392,174.362 C 340.60879,174.362 373.38555,157.54377 373.38555,136.79609 C 373.38555,116.05981 340.60879,99.242656 300.18392,99.242656 z M 145.94243,181.95327 C 105.50619,181.95327 72.741834,201.57364 72.741834,225.76306 C 72.741834,249.968 105.50619,269.58941 145.94243,269.58941 C 186.3673,269.58941 219.14302,249.968 219.14302,225.76306 C 219.14302,201.57364 186.3673,181.95327 145.94243,181.95327 z" id="path49" style="fill: url(&quot;#SVGID_6_&quot;) rgb(0, 0, 0);"/>
<path d="M 145.88043,175.6918 C 105.42353,175.6918 72.615773,196.00963 72.615773,221.069 C 72.615773,222.14258 72.762497,223.19544 72.877186,224.27005 C 75.423117,200.64167 107.08913,181.95327 145.88973,181.95327 C 184.66037,181.95327 216.29435,200.60445 218.88161,224.19664 C 219.00767,223.1593 219.15439,222.12191 219.15439,221.069 C 219.15439,196.00963 186.34664,175.6918 145.88043,175.6918 z" id="path51" style="fill: rgb(242, 242, 242);"/>
<path d="M 461.06817,175.6918 C 420.61125,175.6918 387.80352,196.00963 387.80352,221.069 C 387.80352,222.14258 387.95127,223.19544 388.06596,224.27005 C 390.61086,200.64167 422.27686,181.95327 461.07745,181.95327 C 499.84706,181.95327 531.48211,200.60445 534.06937,224.19664 C 534.19645,223.1593 534.3442,222.12191 534.3442,221.069 C 534.34317,196.00963 501.53541,175.6918 461.06817,175.6918 z" id="path53" style="fill: rgb(242, 242, 242);"/>
<path d="M 300.11985,93.878 C 259.66502,93.878 226.85727,111.29239 226.85727,132.77262 C 226.85727,133.69531 227.00502,134.59634 227.11868,135.51903 C 229.66461,115.2642 261.33062,99.242656 300.13226,99.242656 C 338.90186,99.242656 370.53688,115.23322 373.12413,135.45495 C 373.25019,134.56531 373.39794,133.67469 373.39794,132.77262 C 373.39691,111.29239 340.58916,93.878 300.11985,93.878 z" id="path55" style="fill: rgb(242, 242, 242);"/>
<path d="M 412.78234,319.20298 C 372.32853,319.20298 339.52078,340.0963 339.52078,365.87281 C 339.52078,366.98356 339.66853,368.06328 339.78219,369.173 C 342.32915,344.86372 373.99413,325.63597 412.79474,325.63597 C 451.56539,325.63597 483.19936,344.83273 485.78662,369.08933 C 485.9137,368.02091 486.06042,366.96186 486.06042,365.87281 C 486.05939,340.0963 453.25163,319.20298 412.78234,319.20298 z" id="path57" style="fill: rgb(242, 242, 242);"/>
<path d="M 208.91798,319.20298 C 168.46108,319.20298 135.65333,340.0963 135.65333,365.87281 C 135.65333,366.98356 135.80108,368.06328 135.91474,369.173 C 138.46066,344.86372 170.12668,325.63597 208.92728,325.63597 C 247.69688,325.63597 279.33087,344.83273 281.91916,369.08933 C 282.04625,368.02091 282.19193,366.96186 282.19193,365.87281 C 282.19193,340.0963 249.38521,319.20298 208.91798,319.20298 z" id="path59" style="fill: rgb(242, 242, 242);"/>
<linearGradient x1="306.17291" y1="205.5352" x2="306.17291" y2="280.29401" id="SVGID_7_" gradientUnits="userSpaceOnUse" gradientTransform="matrix(1.03325, 0, 0, 1.03325, -11.1209, 1.32669)">
	<stop id="stop62" style="stop-color: rgb(237, 237, 237); stop-opacity: 1;" offset="0"/>
	<stop id="stop64" style="stop-color: rgb(214, 214, 214); stop-opacity: 1;" offset="1"/>
</linearGradient>
<path d="M 268.56544,240.79892 C 275.6277,229.83927 289.34409,222.29961 305.34914,222.29961 C 320.77452,222.29961 334.02802,229.33709 341.22668,239.69956 C 341.50979,239.60553 341.7836,239.52181 342.06567,239.42675 C 348.6888,235.99536 355.31091,232.51639 361.46184,228.39786 C 349.88324,212.52922 329.18828,201.85677 305.34914,201.85677 C 281.45936,201.85677 260.60734,212.51267 249.00188,228.42987 C 255.62501,232.41617 262.0012,236.74447 268.56544,240.79892 z" id="path66" style="fill: url(&quot;#SVGID_7_&quot;) rgb(0, 0, 0);"/>
<linearGradient x1="306.18069" y1="205.5405" x2="306.18069" y2="280.3429" id="SVGID_8_" gradientUnits="userSpaceOnUse" gradientTransform="matrix(1.03325, 0, 0, 1.03325, -11.1209, 1.32669)">
	<stop id="stop69" style="stop-color: rgb(237, 237, 237); stop-opacity: 1;" offset="0"/>
	<stop id="stop71" style="stop-color: rgb(214, 214, 214); stop-opacity: 1;" offset="1"/>
</linearGradient>
<path d="M 330.72885,254.86044 C 330.72885,265.1082 319.31867,273.41759 305.23444,273.41759 C 291.16261,273.41759 279.75243,265.1082 279.75243,254.86044 C 279.75243,244.61783 291.16261,236.30844 305.23444,236.30844 C 319.31867,236.30844 330.72885,244.61886 330.72885,254.86044 z" id="path73" style="fill: url(&quot;#SVGID_8_&quot;) rgb(0, 0, 0);"/>
<linearGradient x1="306.1748" y1="205.5415" x2="306.1748" y2="280.34299" id="SVGID_9_" gradientUnits="userSpaceOnUse" gradientTransform="matrix(1.03325, 0, 0, 1.03325, -11.1209, 1.32669)">
	<stop id="stop76" style="stop-color: rgb(237, 237, 237); stop-opacity: 1;" offset="0"/>
	<stop id="stop78" style="stop-color: rgb(214, 214, 214); stop-opacity: 1;" offset="1"/>
</linearGradient>
<path d="M 268.53857,268.90747 C 275.60187,279.87233 289.33789,287.41709 305.33777,287.41709 C 320.78279,287.41709 334.03939,280.37548 341.24837,270.01198 C 341.52942,270.10602 341.80323,270.18973 342.08737,270.2848 C 348.70947,273.71619 355.33054,277.19516 361.49181,281.31884 C 349.90288,297.19372 329.19861,307.87133 305.33777,307.87133 C 281.448,307.87133 260.57428,297.20919 248.97502,281.28683 C 255.58885,277.29538 261.9795,272.96811 268.53857,268.90747 z" id="path80" style="fill: url(&quot;#SVGID_9_&quot;) rgb(0, 0, 0);"/>
<path d="M 305.34914,205.42977 C 327.95045,205.42977 347.61939,215.0803 359.4904,229.59228 C 360.12998,229.18311 360.82226,228.8277 361.46081,228.39786 C 349.88221,212.52922 329.18724,201.85677 305.3481,201.85677 C 281.45833,201.85677 260.60631,212.51267 249.00085,228.42987 C 249.66006,228.8277 250.30067,229.2627 250.94955,229.66048 C 262.8495,215.08545 282.68377,205.42977 305.34914,205.42977 z" id="path82" style="fill: rgb(250, 250, 250);"/>
<path d="M 305.23444,236.29395 C 291.16674,236.29395 279.76173,244.59819 279.76173,254.83461 C 279.76173,255.44731 279.92912,256.02284 280.01488,256.62106 C 281.26098,247.23298 292.00575,239.86695 305.23548,239.86695 C 318.46935,239.86695 329.22031,247.23298 330.46847,256.62106 C 330.55114,256.02388 330.71852,255.44834 330.71852,254.83461 C 330.71749,244.59819 319.30731,236.29395 305.23444,236.29395 z" id="path84" style="fill: rgb(250, 250, 250);"/>
<path d="M 342.08737,270.2848 C 341.80426,270.19077 341.53045,270.10705 341.24837,270.01198 C 334.03939,280.37548 320.78279,287.41709 305.33777,287.41709 C 289.33789,287.41709 275.60187,279.87233 268.53857,268.90747 C 261.97847,272.96811 255.58885,277.29538 248.97502,281.28683 C 249.57224,282.09894 250.28518,282.83773 250.92373,283.62298 C 256.84528,279.97667 262.63975,276.13709 268.53857,272.48042 C 275.60187,283.44528 289.33789,290.99009 305.33777,290.99009 C 320.78279,290.99009 334.03939,283.94848 341.24837,273.58602 C 341.52942,273.68005 341.80323,273.76372 342.08737,273.85775 C 348.01719,276.93373 353.90568,280.10788 359.51313,283.69222 C 360.16098,282.89558 360.88425,282.14544 361.49181,281.31884 C 355.33054,277.19619 348.70947,273.71722 342.08737,270.2848 z" id="path86" style="fill: rgb(250, 250, 250);"/>
</svg>